<?xml version="1.0" encoding="utf-8"?>
<!-- Generator: Adobe Illustrator 24.0.0, SVG Export Plug-In . SVG Version: 6.00 Build 0)  -->
<svg version="1.1" id="图层_1" xmlns="http://www.w3.org/2000/svg" xmlns:xlink="http://www.w3.org/1999/xlink" x="0px" y="0px"
	 viewBox="0 0 44 44" style="enable-background:new 0 0 44 44;" xml:space="preserve">
<style type="text/css">
	.st0{fill-rule:evenodd;clip-rule:evenodd;fill:#A1080B;}
	.st1{fill:#FFFFFF;}
</style>
<title>编组 3</title>
<desc>Created with Sketch.</desc>
<rect id="矩形备份-5-copy-3" class="st0" width="44" height="44"/>
<path class="st1" d="M28.1,18.9l4-4v14l-4-4v3c0,1.1-0.9,2-2,2h-12c-1.1,0-2-0.9-2-2v-12c0-1.1,0.9-2,2-2h12c1.1,0,2,0.9,2,2V18.9z
	 M20.1,25.9c2.2,0,4-1.8,4-4s-1.8-4-4-4s-4,1.8-4,4S17.9,25.9,20.1,25.9z M20.1,23.9c-1.1,0-2-0.9-2-2c0-1.1,0.9-2,2-2
	c1.1,0,2,0.9,2,2C22.1,23,21.2,23.9,20.1,23.9z"/>
</svg>
