<?xml version="1.0" encoding="UTF-8"?>
<svg width="18px" height="20px" viewBox="0 0 18 20" version="1.1" xmlns="http://www.w3.org/2000/svg" xmlns:xlink="http://www.w3.org/1999/xlink">
    <!-- Generator: Sketch 61.2 (89653) - https://sketch.com -->
    <title>通知公告图标红</title>
    <desc>Created with Sketch.</desc>
    <g id="Page-1" stroke="none" stroke-width="1" fill="none" fill-rule="evenodd">
        <g id="通知公告图标红" fill="#FFFFFF" fill-rule="nonzero">
            <g id="notification-copy备份-2">
                <path d="M3,8 C2.99888065,5.44466448 4.61632706,3.16900166 7.03,2.33 C6.90540493,1.5493985 7.25226915,0.768649156 7.91505141,0.337856492 C8.57783366,-0.0929361713 9.43216634,-0.0929361713 10.0949486,0.337856492 C10.7577308,0.768649156 11.1045951,1.5493985 10.98,2.33 C13.3897261,3.17239858 15.0026009,5.44727434 15,8 L15,14 L18,16 L18,17 L0,17 L0,16 L3,14 L3,8 Z M11,18 C11,19.1045695 10.1045695,20 9,20 C7.8954305,20 7,19.1045695 7,18 L11,18 Z" id="Shape"></path>
            </g>
        </g>
    </g>
</svg>