<?xml version="1.0" encoding="UTF-8"?>
<svg width="20px" height="20px" viewBox="0 0 20 20" version="1.1" xmlns="http://www.w3.org/2000/svg" xmlns:xlink="http://www.w3.org/1999/xlink">
    <!-- Generator: Sketch 61.2 (89653) - https://sketch.com -->
    <title>学术预告图标红</title>
    <desc>Created with Sketch.</desc>
    <g id="Page-1" stroke="none" stroke-width="1" fill="none" fill-rule="evenodd">
        <path d="M15.6448984,8.01028598 L11.8230878,4.26350035 C11.7046595,2.59980956 12.6578865,1.03985936 14.2123731,0.35344977 C15.7668597,-0.33295982 17.5940519,-0.000750322874 18.7922719,1.18614041 C20.0020477,2.36053311 20.3393347,4.14572704 19.6385293,5.66521555 C18.9377239,7.18470406 17.3460102,8.11936253 15.6448984,8.01028598 L15.6448984,8.01028598 Z M1.44084303,15.3040287 L10.8420883,6.12190602 L13.7339931,8.94948024 L4.33274783,18.1415943 L1.45106177,15.3040287 L1.44084303,15.3040287 Z M0.0102187449,18.1316029 L2.16637392,16.0134201 L3.61743569,17.4322029 L1.45106177,19.5503857 L0,18.1316029 L0.0102187449,18.1316029 Z M9.76912012,15.0042858 L11.8128691,13.0060002 L11.8128691,20 L9.76912012,20 L9.76912012,15.0042858 Z" id="学术预告图标红" fill="#FFFFFF" fill-rule="nonzero"></path>
    </g>
</svg>