<?xml version="1.0" encoding="UTF-8"?>
<svg width="44px" height="44px" viewBox="0 0 44 44" version="1.1" xmlns="http://www.w3.org/2000/svg" xmlns:xlink="http://www.w3.org/1999/xlink">
    <!-- Generator: Sketch 61.2 (89653) - https://sketch.com -->
    <title>要闻速递图标</title>
    <desc>Created with Sketch.</desc>
    <g id="Page-1" stroke="none" stroke-width="1" fill="none" fill-rule="evenodd">
        <g id="郑州大学_首页_通知公告_0509" transform="translate(-150.000000, -846.000000)">
            <g id="要闻速递图标" transform="translate(150.000000, 846.000000)">
                <rect id="矩形备份-5-copy" fill="#A1080B" x="0" y="0" width="44" height="44"></rect>
                <path d="M31.5294118,26.8305085 L31.5294118,28.3728814 L29.2941176,28.3728814 L29.0588235,33 L27.0588235,33 L27.0588235,28.3728814 L17.0588235,28.4915254 L17.0588235,33 L15.0240252,33 L14.8235294,28.3728814 L12.6256327,28.4915254 L12.6256327,26.8305085 L31.5294118,26.8305085 Z M16.7045526,12 L16.7045526,15.559322 L27.2954474,15.559322 L27.2954474,12 L30.7048939,12 L30.7048939,12.7118644 L30,12.7118644 L29.829789,15.559322 L32,15.559322 L32,16.5752119 L30.7048939,16.5752119 L30.7048939,17.8135593 L32,17.8135593 L32,19.1186441 L31.997,19.118 L31.6470588,25.5254237 L12.4346574,25.5254237 L12.004,19.118 L12,19.1186441 L12,17.8135593 L13.2951061,17.8135593 L13.2951061,16.5752119 L12,16.5752119 L12,15.559322 L14.170211,15.559322 L14,12.7118644 L13.2951061,12.7118644 L13.2951061,12 L16.7045526,12 Z" id="合并形状" fill="#FFFFFF"></path>
            </g>
        </g>
    </g>
</svg>