<?xml version="1.0" encoding="UTF-8"?>
<svg width="44px" height="44px" viewBox="0 0 44 44" version="1.1" xmlns="http://www.w3.org/2000/svg" xmlns:xlink="http://www.w3.org/1999/xlink">
    <!-- Generator: Sketch 60.1 (88133) - https://sketch.com -->
    <title>编组 3</title>
    <desc>Created with Sketch.</desc>
    <g id="页面-1" stroke="none" stroke-width="1" fill="none" fill-rule="evenodd">
        <g id="郑州大学_首页修改" transform="translate(-735.000000, -3359.000000)">
            <g id="编组-3" transform="translate(735.000000, 3359.000000)">
                <rect id="矩形备份-5-copy-6备份-2" fill="#A1080B" x="0" y="0" width="44" height="44"></rect>
                <g id="book-reference" transform="translate(14.000000, 12.000000)" fill="#FFFFFF" fill-rule="nonzero">
                    <path d="M4,4 L3,4 C2.44771525,4 2,3.55228475 2,3 C2,2.44771525 2.44771525,2 3,2 L14,2 L14,1 C14,0.44771525 13.5522847,0 13,0 L2,0 C0.8954305,0 0,0.8954305 0,2 L0,18 C0,19.1 0.9,20 2,20 L14,20 C15.1045695,20 16,19.1045695 16,18 L16,5 C16,4.44771525 15.5522847,4 15,4 L8,4 L8,12 L6,10 L4,12 L4,4 Z" id="路径"></path>
                </g>
            </g>
        </g>
    </g>
</svg>