<?xml version="1.0" encoding="UTF-8"?>
<svg width="44px" height="44px" viewBox="0 0 44 44" version="1.1" xmlns="http://www.w3.org/2000/svg" xmlns:xlink="http://www.w3.org/1999/xlink">
    <!-- Generator: Sketch 61.2 (89653) - https://sketch.com -->
    <title>教学科研图标</title>
    <desc>Created with Sketch.</desc>
    <g id="Page-1" stroke="none" stroke-width="1" fill="none" fill-rule="evenodd">
        <g id="郑州大学_首页_通知公告_0509" transform="translate(-150.000000, -1607.000000)">
            <g id="教学科研图标" transform="translate(150.000000, 1607.000000)">
                <rect id="矩形备份-5-copy-2" fill="#E05050" x="0" y="0" width="44" height="44"></rect>
                <g id="process" transform="translate(10.000000, 9.000000)" fill="#FFFFFF" fill-rule="nonzero">
                    <path d="M8.3175,2.95049829 C8.7309832,1.22575621 10.2699002,0.00713782271 12.0435,0 C13.8345,0 15.339,1.24049928 15.762,2.91899831 C20.0227048,4.50990531 22.8418469,8.58598747 22.827,13.1339924 C22.827,13.825492 22.761,14.5049916 22.638,15.1619912 C23.472,15.8744908 24,16.9379902 24,18.1274895 C24,20.2709883 22.2825,22.0079872 20.163,22.0079872 C19.638,22.0079872 19.137,21.9029873 18.681,21.7079874 C16.8024669,23.1944963 14.4765361,24.0022282 12.081,24 C9.6405,24 7.3875,23.1749866 5.583,21.7874874 C5.0595,22.0574872 4.4655,22.2119871 3.837,22.2119871 C1.7175,22.2119871 0,20.4734881 0,18.3299894 C0,17.0594901 0.6045,15.9299908 1.5375,15.2234912 C1.40522447,14.5343641 1.33892475,13.8341993 1.3395,13.1324924 C1.32523204,8.6186909 4.1026644,4.5659824 8.3175,2.95049829 L8.3175,2.95049829 Z M8.502,5.37899688 C5.50865725,6.79600186 3.60333558,9.81470761 3.61197057,13.1264924 C3.61197057,13.5764921 3.648,14.0189919 3.714,14.4509916 L3.837,14.4494916 C5.9565,14.4494916 7.674,16.1864906 7.674,18.3299894 C7.67497038,18.9592434 7.52366517,19.5793885 7.233,20.1374883 C8.64296585,21.1338855 10.3274983,21.6679669 12.054,21.665994 C13.7816885,21.6681499 15.4673759,21.1335105 16.878,20.1359883 C16.5149052,19.5285391 16.3240787,18.8336819 16.326,18.1259895 C16.326,15.9839907 18.0435,14.2454917 20.163,14.2454917 C20.25,14.2454917 20.337,14.2484917 20.4225,14.2544917 C20.4713847,13.8804787 20.496,13.5036866 20.496,13.1264924 C20.496,9.68699439 18.486,6.7229961 15.588,5.37149689 C15.0008217,6.81364426 13.600597,7.75818801 12.0435,7.7624955 C10.4895105,7.75736517 9.09193389,6.81577805 8.5035,5.37749688 L8.502,5.37899688 Z" id="Shape"></path>
                </g>
            </g>
        </g>
    </g>
</svg>