<?xml version="1.0" encoding="utf-8"?>
<!-- Generator: Adobe Illustrator 24.2.1, SVG Export Plug-In . SVG Version: 6.00 Build 0)  -->
<svg version="1.1" id="图层_1" xmlns="http://www.w3.org/2000/svg" xmlns:xlink="http://www.w3.org/1999/xlink" x="0px" y="0px"
	 viewBox="0 0 21 21" style="enable-background:new 0 0 21 21;" xml:space="preserve">
<style type="text/css">
	.st0{fill:#FFFFFF;}
</style>
<path class="st0" d="M3.1,17.9c-4.2-4-4.3-10.7-0.3-14.8s10.7-4.3,14.8-0.3c0.1,0.1,0.2,0.2,0.3,0.3c4,4.2,3.9,10.8-0.3,14.8
	C13.6,21.9,7.2,21.9,3.1,17.9z M16.4,16.4c3.3-3.3,3.3-8.6,0-11.9s-8.6-3.3-11.9,0s-3.3,8.6,0,11.9S13.2,19.7,16.4,16.4z M9.5,11.6
	V9.5h2.1v6.3H9.5V11.6z M9.5,5.3h2.1v2.1H9.5V5.3z"/>
</svg>
