<?xml version="1.0" encoding="utf-8"?>
<!-- Generator: Adobe Illustrator 24.2.1, SVG Export Plug-In . SVG Version: 6.00 Build 0)  -->
<svg version="1.1" id="图层_1" xmlns="http://www.w3.org/2000/svg" xmlns:xlink="http://www.w3.org/1999/xlink" x="0px" y="0px"
	 viewBox="0 0 21 21" style="enable-background:new 0 0 21 21;" xml:space="preserve">
<style type="text/css">
	.st0{fill:#FFFFFF;}
</style>
<path class="st0" d="M9.7,13.7c-0.4-0.7-0.4-1.5,0-2.1c1.8-0.1,3.1-1.7,2.9-3.4c-0.1-1.7-1.5-2.9-3.2-2.9H5.2C3.4,5.2,2,6.6,2,8.4
	s1.4,3.2,3.2,3.2h0.1c-0.1,0.7-0.1,1.4,0,2.1H5.2c-2.9,0-5.3-2.4-5.3-5.3s2.4-5.3,5.3-5.3h4.3C12.4,3,14.9,5.3,15,8.3
	C15,11.2,12.6,13.6,9.7,13.7L9.7,13.7z M11.3,7.3c0.4,0.7,0.4,1.5,0,2.1c-1.8,0.1-3.1,1.7-2.9,3.4c0.1,1.7,1.5,2.9,3.2,2.9h4.3
	c1.8,0,3.2-1.4,3.2-3.2s-1.4-3.2-3.2-3.2h-0.1c0.1-0.7,0.1-1.4,0-2.1h0.1c2.9,0,5.3,2.4,5.3,5.3s-2.4,5.3-5.3,5.3h-4.3
	c-2.9,0.1-5.4-2.2-5.5-5.2S8.4,7.4,11.3,7.3z"/>
</svg>
